<?xml version="1.0" standalone="no"?>
<!DOCTYPE svg PUBLIC "-//W3C//DTD SVG 20010904//EN"
 "http://www.w3.org/TR/2001/REC-SVG-20010904/DTD/svg10.dtd">
<svg version="1.0" xmlns="http://www.w3.org/2000/svg"
 width="715.000000pt" height="678.000000pt" viewBox="0 0 715.000000 678.000000"
 preserveAspectRatio="xMidYMid meet">
<metadata>
Created by potrace 1.16, written by Peter Selinger 2001-2019
</metadata>
<g transform="translate(0.000000,678.000000) scale(0.100000,-0.100000)"
fill="#000000" stroke="none">
<path d="M2523 5593 c307 -2 807 -2 1110 0 304 1 53 2 -558 2 -610 0 -859 -1
-552 -2z"/>
<path d="M2425 2098 l0 -343 485 0 485 0 -482 2 -483 3 -3 340 -2 340 0 -342z"/>
<path d="M2508 1173 c309 -2 815 -2 1125 0 309 1 56 2 -563 2 -619 0 -872 -1
-562 -2z"/>
</g>
</svg>
